<svg width="123" height="24" viewBox="0 0 123 24" fill="none" xmlns="http://www.w3.org/2000/svg">
<path d="M56.6794 12.2822C56.6794 15.3359 54.2904 17.5861 51.3587 17.5861C48.427 17.5861 46.0381 15.3359 46.0381 12.2822C46.0381 9.20697 48.427 6.97827 51.3587 6.97827C54.2904 6.97827 56.6794 9.20697 56.6794 12.2822ZM54.3502 12.2822C54.3502 10.3739 52.9657 9.06827 51.3587 9.06827C49.7518 9.06827 48.3672 10.3739 48.3672 12.2822C48.3672 14.1713 49.7518 15.4961 51.3587 15.4961C52.9657 15.4961 54.3502 14.1689 54.3502 12.2822Z" fill="#EA4335"/>
<path d="M68.1576 12.2822C68.1576 15.3359 65.7687 17.5861 62.837 17.5861C59.9052 17.5861 57.5163 15.3359 57.5163 12.2822C57.5163 9.20936 59.9052 6.97827 62.837 6.97827C65.7687 6.97827 68.1576 9.20697 68.1576 12.2822ZM65.8285 12.2822C65.8285 10.3739 64.4439 9.06827 62.837 9.06827C61.23 9.06827 59.8454 10.3739 59.8454 12.2822C59.8454 14.1713 61.23 15.4961 62.837 15.4961C64.4439 15.4961 65.8285 14.1689 65.8285 12.2822Z" fill="#FBBC05"/>
<path d="M79.1576 7.29871V16.8209C79.1576 20.7378 76.8476 22.3376 74.1167 22.3376C71.5461 22.3376 69.9989 20.6183 69.4154 19.2122L71.4433 18.3681C71.8043 19.2313 72.6891 20.25 74.1143 20.25C75.8624 20.25 76.9457 19.1715 76.9457 17.1413V16.3785H76.8644C76.343 17.0218 75.3387 17.5837 74.0713 17.5837C71.4193 17.5837 68.9898 15.2737 68.9898 12.3013C68.9898 9.3074 71.4193 6.97827 74.0713 6.97827C75.3363 6.97827 76.3407 7.54023 76.8644 8.16436H76.9457V7.3011H79.1576V7.29871ZM77.1107 12.3013C77.1107 10.4337 75.8648 9.06827 74.2793 9.06827C72.6724 9.06827 71.3261 10.4337 71.3261 12.3013C71.3261 14.1498 72.6724 15.4961 74.2793 15.4961C75.8648 15.4961 77.1107 14.1498 77.1107 12.3013Z" fill="#4285F4"/>
<path d="M82.8044 1.71738V17.2609H80.5326V1.71738H82.8044Z" fill="#34A853"/>
<path d="M91.657 14.0278L93.4648 15.233C92.8813 16.0963 91.4752 17.5837 89.0457 17.5837C86.0326 17.5837 83.7824 15.2546 83.7824 12.2798C83.7824 9.12564 86.0517 6.97586 88.785 6.97586C91.5374 6.97586 92.8837 9.16629 93.3237 10.35L93.5652 10.9526L86.475 13.8891C87.0178 14.9532 87.862 15.4961 89.0457 15.4961C90.2317 15.4961 91.0543 14.9126 91.657 14.0278ZM86.0924 12.1196L90.832 10.1515C90.5713 9.48912 89.787 9.0276 88.8639 9.0276C87.6802 9.0276 86.0326 10.0726 86.0924 12.1196V12.1196Z" fill="#EA4335"/>
<path d="M37.4389 10.9024V8.65218H45.0217C45.0959 9.04435 45.1341 9.50827 45.1341 10.0104C45.1341 11.6987 44.6726 13.7863 43.1852 15.2737C41.7385 16.7802 39.89 17.5837 37.4413 17.5837C32.9026 17.5837 29.0861 13.8867 29.0861 9.34805C29.0861 4.80935 32.9026 1.1124 37.4413 1.1124C39.9522 1.1124 41.7409 2.09761 43.0848 3.38174L41.497 4.96957C40.5333 4.06566 39.2276 3.36261 37.4389 3.36261C34.1246 3.36261 31.5324 6.0337 31.5324 9.34805C31.5324 12.6624 34.1246 15.3335 37.4389 15.3335C39.5887 15.3335 40.813 14.4702 41.5974 13.6859C42.2335 13.0498 42.652 12.1411 42.817 10.9L37.4389 10.9024V10.9024Z" fill="#4285F4"/>
</svg>
