<svg width="123" height="24" viewBox="0 0 123 24" fill="none" xmlns="http://www.w3.org/2000/svg">
<g clip-path="url(#clip0_3_2)">
<path d="M13.8938 4.44633C12.5555 4.44633 12.1685 5.0399 12.1685 6.34907V8.52085H15.7382L15.3804 12.0295H12.1699V22.6776H7.886V12.0295H5V8.52085H7.886V6.4087C7.886 2.8695 9.31305 1.00005 13.2946 1.00005C14.129 0.998113 14.9627 1.04762 15.7909 1.14845V4.45049L13.8938 4.44633Z" fill="#1877F2"/>
<path d="M16.035 15.1527C16.035 11.1975 17.9086 8.21854 21.8348 8.21854C23.976 8.21854 25.2838 9.31968 25.9093 10.6871V8.52086H30.0129V22.6777H25.9093V20.5364C25.3143 21.9052 23.976 22.9758 21.8348 22.9758C17.9086 22.9758 16.035 20.0011 16.035 16.0417V15.1527ZM20.3176 16.1055C20.3176 18.2162 21.09 19.6141 23.0829 19.6141C24.8386 19.6141 25.7304 18.3355 25.7304 16.3135V14.892C25.7304 12.87 24.8386 11.5913 23.0829 11.5913C21.09 11.5913 20.3176 12.9892 20.3176 15.1V16.1055Z" fill="#1877F2"/>
<path d="M38.9358 8.22269C40.6 8.22269 42.1768 8.58049 43.0394 9.17405L42.0881 12.2084C41.1958 11.7835 40.2208 11.56 39.2326 11.5539C36.9124 11.5539 35.9042 12.8922 35.9042 15.1832V16.0153C35.9042 18.3064 36.9152 19.6446 39.2326 19.6446C40.2208 19.6384 41.1958 19.415 42.0881 18.9901L43.0394 22.0231C42.1768 22.618 40.6014 22.9758 38.9358 22.9758C33.9085 22.9758 31.6189 20.2687 31.6189 15.9265V15.272C31.6189 10.9298 33.9085 8.22269 38.9358 8.22269Z" fill="#1877F2"/>
<path d="M43.6039 16.1401V14.892C43.6039 10.8771 45.8935 8.23517 50.5644 8.23517C54.9662 8.23517 56.8994 10.9118 56.8994 14.8379V17.0984H47.885C47.9752 19.0317 48.8378 19.8943 51.2134 19.8943C52.8207 19.8943 54.5154 19.567 55.765 19.0317L56.5485 21.9648C55.4183 22.5612 53.0981 23.0063 51.047 23.0063C45.6259 23.0049 43.6039 20.3006 43.6039 16.1401ZM47.8864 14.2956H53.062V13.9392C53.062 12.3929 52.438 11.1655 50.5658 11.1655C48.6311 11.1669 47.8864 12.3873 47.8864 14.2901V14.2956Z" fill="#1877F2"/>
<path d="M72.7745 16.0458C72.7745 20.001 70.8718 22.98 66.9498 22.98C64.8085 22.98 63.3218 21.9093 62.7269 20.5405V22.6818H58.6829V1.41193L62.9654 1.02362V10.4818C63.5895 9.23367 64.9583 8.22128 66.9512 8.22128C70.8773 8.22128 72.7759 11.196 72.7759 15.1554L72.7745 16.0458ZM68.492 15.0639C68.492 13.071 67.7195 11.5844 65.667 11.5844C63.9112 11.5844 62.9599 12.8325 62.9599 14.8559V16.3426C62.9599 18.3646 63.9112 19.6141 65.667 19.6141C67.7195 19.6141 68.492 18.1274 68.492 16.1346V15.0639Z" fill="#1877F2"/>
<path d="M74.2071 15.9557V15.2428C74.2071 11.1669 76.5273 8.22269 81.2564 8.22269C85.9855 8.22269 88.307 11.1669 88.307 15.2428V15.9557C88.307 20.0302 85.9869 22.9758 81.2578 22.9758C76.5287 22.9758 74.2071 20.0302 74.2071 15.9557ZM84.0231 14.9447C84.0231 13.0711 83.2493 11.5844 81.2495 11.5844C79.2497 11.5844 78.4827 13.0711 78.4827 14.9447V16.2538C78.4827 18.1275 79.2566 19.6141 81.2495 19.6141C83.2423 19.6141 84.0231 18.1275 84.0231 16.2538V14.9447Z" fill="#1877F2"/>
<path d="M89.7313 15.9557V15.2428C89.7313 11.1669 92.0515 8.22269 96.7806 8.22269C101.51 8.22269 103.83 11.1669 103.83 15.2428V15.9557C103.83 20.0302 101.51 22.9758 96.7806 22.9758C92.0515 22.9758 89.7313 20.0302 89.7313 15.9557ZM99.5473 14.9447C99.5473 13.0711 98.7735 11.5844 96.7806 11.5844C94.7877 11.5844 94.0153 13.0711 94.0153 14.9447V16.2538C94.0153 18.1275 94.7877 19.6141 96.7806 19.6141C98.7735 19.6141 99.5473 18.1275 99.5473 16.2538V14.9447Z" fill="#1877F2"/>
<path d="M109.718 15.2719L113.941 8.52084H118.491L114.061 15.5105L118.67 22.6776H114.12L109.718 15.7435V22.6776H105.434V1.41193L109.718 1.02362V15.2719Z" fill="#1877F2"/>
</g>
<defs>
<clipPath id="clip0_3_2">
<rect width="113.671" height="22" fill="white" transform="translate(5 1)"/>
</clipPath>
</defs>
</svg>
