<svg width="123" height="24" viewBox="0 0 123 24" fill="none" xmlns="http://www.w3.org/2000/svg">
<path d="M35.7491 4.60126C34.5603 5.09885 33.2535 6.50462 32.8408 8.26917C32.3181 10.5049 34.4933 11.4503 34.6717 11.1404C34.8817 10.7761 34.2819 10.6529 34.1585 9.49292C33.9989 7.99467 34.6954 6.32054 35.572 5.58598C35.735 5.44951 35.7272 5.63946 35.7272 5.99081C35.7272 6.6191 35.6925 12.2593 35.6925 13.4364C35.6925 15.0292 35.6267 15.5322 35.5086 16.0292C35.3889 16.5328 35.1964 16.8732 35.3422 17.0042C35.5052 17.1509 36.2009 16.8021 36.6036 16.24C37.0866 15.5658 37.2556 14.7562 37.286 13.8769C37.3226 12.817 37.3211 11.1352 37.3226 10.1759C37.3241 9.29606 37.3375 6.71973 37.3072 5.17092C37.2998 4.79104 36.2462 4.39248 35.749 4.60079L35.7491 4.60126ZM77.9617 12.0554C77.9234 12.8834 77.7401 13.5307 77.5126 13.9872C77.0722 14.871 76.1583 15.1454 75.7703 13.8749C75.5589 13.1824 75.549 12.0257 75.701 11.0593C75.8558 10.0747 76.2879 9.33119 77.0034 9.39825C77.7091 9.46453 78.0394 10.3739 77.9617 12.0553V12.0554ZM66.0644 17.1928C66.0549 18.5687 65.8383 19.775 65.374 20.1254C64.7154 20.6222 63.8302 20.2495 64.0135 19.2456C64.1756 18.3571 64.9427 17.4498 66.0663 16.3412C66.0663 16.3412 66.0687 16.594 66.0645 17.1928H66.0644ZM65.8846 12.0474C65.8443 12.8016 65.6488 13.5592 65.4355 13.9873C64.9952 14.8711 64.0747 15.1474 63.6932 13.875C63.4324 13.0057 63.4948 11.8805 63.6239 11.1716C63.7914 10.2518 64.1973 9.39844 64.9262 9.39844C65.635 9.39844 65.9845 10.176 65.8846 12.0474V12.0474ZM58.9925 12.0358C58.9493 12.8346 58.7934 13.5023 58.5434 13.9873C58.0909 14.865 57.1959 15.1434 56.8011 13.875C56.5165 12.9604 56.6134 11.7134 56.7318 11.0397C56.9075 10.04 57.3474 9.33129 58.0341 9.39844C58.7396 9.46736 59.0825 10.374 58.9925 12.0359V12.0358ZM90.5774 12.9688C90.405 12.9688 90.3263 13.1466 90.2612 13.4458C90.0353 14.4861 89.798 14.721 89.4919 14.721C89.1499 14.721 88.8427 14.2059 88.7637 13.1747C88.7016 12.3638 88.7116 10.871 88.791 9.38604C88.8072 9.08093 88.723 8.77906 87.9047 8.48177C87.5525 8.3539 87.0407 8.16562 86.7858 8.78082C86.0657 10.5189 85.784 11.8987 85.7177 12.4593C85.7143 12.4883 85.6787 12.4942 85.6725 12.4264C85.6302 11.9775 85.5358 11.1616 85.5241 9.44753C85.5218 9.1131 85.4509 8.82842 85.0818 8.59536C84.8423 8.44414 84.115 8.17667 83.8531 8.49487C83.6262 8.75511 83.3634 9.45545 83.0903 10.2856C82.8684 10.9603 82.7139 11.4168 82.7139 11.4168C82.7139 11.4168 82.7168 9.59622 82.7194 8.90565C82.7206 8.64513 82.5419 8.55832 82.4881 8.54258C82.2455 8.47219 81.7677 8.35459 81.5648 8.35459C81.3145 8.35459 81.2533 8.49448 81.2533 8.69831C81.2533 8.72499 81.2138 11.0953 81.2138 12.7527C81.2138 12.8247 81.2138 12.9032 81.2145 12.9866C81.0761 13.7484 80.6272 14.7825 80.1389 14.7825C79.6502 14.7825 79.4195 14.3502 79.4195 12.3743C79.4195 11.2216 79.4541 10.7204 79.4712 9.88671C79.481 9.40651 79.5001 9.03776 79.499 8.95408C79.4954 8.69747 79.0517 8.56813 78.8452 8.52033C78.6378 8.47213 78.4575 8.45346 78.3167 8.46147C78.1175 8.47271 77.9765 8.60342 77.9765 8.7832C77.9765 8.87959 77.9776 9.06289 77.9776 9.06289C77.721 8.65963 77.3083 8.37896 77.0337 8.29763C76.294 8.07797 75.5222 8.2726 74.9401 9.08723C74.4774 9.73449 74.1985 10.4676 74.0887 11.5208C74.0084 12.2909 74.0346 13.0717 74.1773 13.732C74.0049 14.4772 73.6849 14.7825 73.3346 14.7825C72.8259 14.7825 72.4572 13.9522 72.5 12.5164C72.5282 11.572 72.7172 10.9093 72.9238 9.95044C73.0119 9.54171 72.9403 9.32771 72.7608 9.12262C72.5962 8.93453 72.2454 8.83843 71.7412 8.95663C71.382 9.04089 70.8685 9.13151 70.3987 9.20112C70.3987 9.20112 70.427 9.08801 70.4503 8.88859C70.5725 7.84276 69.436 7.92761 69.0735 8.26165C68.857 8.46108 68.7097 8.69629 68.6538 9.1192C68.5651 9.79032 69.1125 10.1069 69.1125 10.1069C68.9329 10.9289 68.4927 12.0028 68.0382 12.7792C67.7948 13.1952 67.6085 13.5034 67.3681 13.8311C67.3673 13.7091 67.3666 13.5871 67.3662 13.4656C67.3607 11.7373 67.3837 10.3771 67.3938 9.88687C67.4037 9.40668 67.423 9.04771 67.4219 8.96403C67.4192 8.77633 67.3096 8.70545 67.0816 8.61571C66.88 8.53633 66.6417 8.48139 66.3944 8.46223C66.0824 8.43789 65.8944 8.60339 65.8993 8.79911C65.9002 8.83606 65.9002 9.06296 65.9002 9.06296C65.6436 8.6597 65.2309 8.37904 64.9563 8.2977C64.2166 8.07813 63.4448 8.27277 62.8627 9.0873C62.4001 9.73456 62.0971 10.6428 62.0113 11.5129C61.9313 12.3238 61.9461 13.0129 62.0551 13.5934C61.9375 14.1747 61.5993 14.7825 61.217 14.7825C60.7282 14.7825 60.4501 14.3502 60.4501 12.3743C60.4501 11.2217 60.4847 10.7205 60.5017 9.88687C60.5116 9.40668 60.5306 9.03784 60.5296 8.95425C60.526 8.69763 60.0822 8.5683 59.8757 8.5204C59.6597 8.47044 59.4732 8.45206 59.3299 8.46262C59.141 8.4767 59.0081 8.64592 59.0081 8.77213V9.06296C58.7515 8.6597 58.3388 8.37904 58.0642 8.2977C57.3245 8.07813 56.557 8.2759 55.9706 9.0873C55.5881 9.61637 55.2785 10.2029 55.1192 11.5014C55.0731 11.8766 55.0528 12.228 55.0554 12.5564C54.9029 13.489 54.2294 14.5639 53.6784 14.5639C53.356 14.5639 53.0489 13.9386 53.0489 12.6058C53.0489 10.8305 53.1588 8.30288 53.1774 8.05927C53.1774 8.05927 53.8735 8.04744 54.0083 8.04587C54.3556 8.04206 54.6701 8.05027 55.1326 8.02661C55.3645 8.01478 55.588 7.18227 55.3486 7.07923C55.2401 7.0326 54.4732 6.99174 54.1692 6.98529C53.9135 6.97949 53.2018 6.92683 53.2018 6.92683C53.2018 6.92683 53.2657 5.24908 53.2805 5.07185C53.2931 4.92414 53.102 4.84808 52.9924 4.80193C52.7259 4.68922 52.4875 4.63525 52.2049 4.57699C51.8144 4.49644 51.6373 4.57523 51.6027 4.90478C51.5506 5.40492 51.5236 6.86983 51.5236 6.86983C51.2371 6.86983 50.2583 6.81382 49.9717 6.81382C49.7054 6.81382 49.418 7.95907 49.7861 7.97314C50.2097 7.98957 50.9479 8.00374 51.4373 8.0185C51.4373 8.0185 51.4155 10.5878 51.4155 11.381C51.4155 11.4654 51.4162 11.5467 51.4164 11.6255C51.147 13.0294 50.1984 13.7877 50.1984 13.7877C50.4021 12.859 49.986 12.1615 49.2363 11.5712C48.9602 11.3536 48.415 10.9418 47.8049 10.4905C47.8049 10.4905 48.1583 10.1422 48.4716 9.4417C48.6936 8.94547 48.7032 8.37759 48.1582 8.25236C47.2579 8.04531 46.5155 8.70654 46.2941 9.41247C46.1225 9.95933 46.214 10.3651 46.5501 10.7867C46.5747 10.8175 46.6012 10.8489 46.6287 10.8806C46.4255 11.2723 46.1463 11.7998 45.9098 12.2088C45.2534 13.3443 44.7576 14.2425 44.3829 14.2425C44.0834 14.2425 44.0874 13.3306 44.0874 12.4768C44.0874 11.7408 44.1417 10.6342 44.1851 9.48842C44.1995 9.10951 44.01 8.89365 43.6924 8.69814C43.4994 8.57936 43.0876 8.34582 42.8491 8.34582C42.492 8.34582 41.462 8.3944 40.4887 11.2098C40.366 11.5646 40.125 12.2112 40.125 12.2112L40.1458 8.82562C40.1458 8.74624 40.1035 8.6695 40.0067 8.617C39.8427 8.52794 39.4046 8.34582 39.0151 8.34582C38.8296 8.34582 38.7369 8.43214 38.7369 8.60419L38.703 13.901C38.703 14.3034 38.7135 14.7729 38.7532 14.9783C38.7929 15.1839 38.8571 15.3511 38.9367 15.4507C39.0161 15.55 39.108 15.6257 39.2595 15.657C39.4004 15.686 40.1725 15.7852 40.2126 15.4901C40.2607 15.1366 40.2625 14.7541 40.6679 13.3278C41.299 11.1072 42.1219 10.0238 42.5087 9.63897C42.5764 9.57172 42.6536 9.56771 42.6499 9.67778C42.6333 10.1646 42.5753 11.3811 42.5362 12.4146C42.4314 15.1804 42.9345 15.6931 43.6536 15.6931C44.2037 15.6931 44.9791 15.1465 45.8103 13.7629C46.3285 12.9007 46.8317 12.0553 47.1932 11.4459C47.4451 11.6792 47.7279 11.9302 48.0104 12.1983C48.6669 12.8214 48.8825 13.4136 48.7395 13.9753C48.6301 14.4047 48.2181 14.8472 47.4849 14.4171C47.2712 14.2916 47.18 14.1947 46.9651 14.0532C46.8497 13.9772 46.6734 13.9545 46.5678 14.0341C46.2933 14.2411 46.1363 14.5043 46.0466 14.8302C45.9594 15.1474 46.277 15.315 46.6063 15.4617C46.8898 15.5879 47.4991 15.7022 47.8877 15.7153C49.4018 15.7659 50.6147 14.9842 51.459 12.9679C51.6102 14.7092 52.2534 15.6946 53.371 15.6946C54.1182 15.6946 54.8673 14.7289 55.1949 13.7788C55.2889 14.1661 55.4281 14.5028 55.6079 14.7876C56.4691 16.1521 58.1397 15.8584 58.9789 14.6998C59.2383 14.3418 59.2778 14.2131 59.2778 14.2131C59.4002 15.3071 60.2812 15.6894 60.7856 15.6894C61.3506 15.6894 61.9339 15.4223 62.3427 14.5019C62.3906 14.6018 62.4429 14.6972 62.5 14.7876C63.3612 16.152 65.0318 15.8584 65.871 14.6997C65.9105 14.6454 65.9449 14.5961 65.9749 14.5518L65.9995 15.2704C65.9995 15.2704 65.5208 15.7096 65.2269 15.979C63.9336 17.1656 62.9501 18.0659 62.8778 19.1142C62.7849 20.451 63.869 20.9478 64.6892 21.0129C65.5603 21.082 66.3062 20.6009 66.7647 19.9275C67.1679 19.3348 67.4319 18.0591 67.4125 16.7992C67.4048 16.2947 67.3921 15.6532 67.3821 14.9655C67.8367 14.4376 68.3488 13.7704 68.8204 12.9894C69.3344 12.1383 69.8851 10.9954 70.1672 10.1058C70.1672 10.1058 70.6457 10.1099 71.1564 10.0765C71.3197 10.0659 71.3667 10.0992 71.3365 10.2189C71.3 10.3636 70.6913 12.7116 71.2468 14.2758C71.6271 15.3465 72.4844 15.691 72.9926 15.691C73.5876 15.691 74.1567 15.2417 74.4617 14.5745C74.4985 14.6489 74.5369 14.7209 74.5788 14.7873C75.44 16.1517 77.1047 15.8563 77.9498 14.6994C78.1405 14.4384 78.2487 14.2128 78.2487 14.2128C78.4301 15.345 79.3106 15.6948 79.8149 15.6948C80.3403 15.6948 80.8388 15.4794 81.2434 14.5223C81.2603 14.9437 81.2869 15.2883 81.3289 15.397C81.3545 15.4634 81.5038 15.5468 81.6124 15.5871C82.093 15.7653 82.5831 15.681 82.7645 15.6444C82.8901 15.619 82.9881 15.5182 83.0015 15.2579C83.0366 14.5746 83.015 13.4265 83.2222 12.5733C83.5699 11.1413 83.8943 10.5858 84.0482 10.3108C84.1343 10.1568 84.2315 10.1314 84.235 10.2944C84.2422 10.6244 84.2586 11.5932 84.3933 12.895C84.4923 13.8524 84.6244 14.4183 84.726 14.5974C85.0159 15.1095 85.3739 15.1338 85.6654 15.1338C85.8508 15.1338 86.2386 15.0825 86.2039 14.7566C86.187 14.5978 86.2167 13.616 86.5595 12.2052C86.7834 11.2839 87.1566 10.4515 87.2912 10.1472C87.3409 10.035 87.3639 10.1234 87.3632 10.1407C87.3348 10.7751 87.2712 12.8503 87.5296 13.9853C87.88 15.5229 88.8936 15.6949 89.2468 15.6949C90.0008 15.6949 90.6175 15.1214 90.8252 13.6122C90.8753 13.249 90.8011 12.9685 90.5791 12.9685" fill="#262626"/>
</svg>
