<svg width="123" height="24" viewBox="0 0 123 24" fill="none" xmlns="http://www.w3.org/2000/svg">
<g clip-path="url(#clip0_3_42)">
<path d="M32.1933 21.5819C30.9688 21.797 29.7227 21.8615 28.4336 22.0332L24.5019 10.5176V22.5274C23.2773 22.6563 22.1602 22.8281 21 23V1H24.2657L28.7344 13.4826V1H32.1933V21.5819ZM38.9609 9.05665C40.2931 9.05665 42.3341 8.99217 43.5586 8.99217V12.4296C42.0332 12.4296 40.2501 12.4296 38.9609 12.4941V17.6074C40.9806 17.4786 43.0001 17.3065 45.041 17.2421V20.5505L35.5234 21.3026V1H45.041V4.43751H38.9609V9.05665V9.05665ZM57.8242 4.43758H54.2578V20.2501C53.0976 20.2501 51.9375 20.2501 50.8205 20.2929V4.43758H47.2541V1H57.8243L57.8242 4.43758V4.43758ZM63.4101 8.82038H68.1152V12.2578H63.4101V20.0567H60.0368V1H69.6406V4.43751H63.4101V8.82038V8.82038ZM75.2265 17.0488C77.1816 17.0917 79.1581 17.2423 81.0703 17.3496V20.7441C77.9981 20.5506 74.9258 20.3575 71.7891 20.2929V1H75.2265V17.0488ZM83.9706 20.9805C85.0663 21.045 86.2265 21.1095 87.3437 21.2382V1H83.9706V20.9805V20.9805ZM102.404 1L98.0429 11.4629L102.404 23C101.115 22.8281 99.8261 22.5918 98.537 22.3769L96.0664 16.0177L93.553 21.8615C92.3066 21.6464 91.1035 21.5819 89.8577 21.4101L94.2834 11.3339L90.2872 1H93.9823L96.2382 6.77931L98.6446 1H102.404V1Z" fill="#D81F26"/>
</g>
<defs>
<clipPath id="clip0_3_42">
<rect width="81.4043" height="22" fill="white" transform="translate(21 1)"/>
</clipPath>
</defs>
</svg>
