<svg width="123" height="24" viewBox="0 0 123 24" fill="none" xmlns="http://www.w3.org/2000/svg">
<g clip-path="url(#clip0_3_52)">
<path d="M35.9995 1.03629C29.943 1.03629 25.0331 5.94608 25.0331 12.0025C25.0331 18.0592 29.943 22.9686 35.9995 22.9686C42.0565 22.9686 46.9659 18.0592 46.9659 12.0025C46.9659 5.94648 42.0565 1.03681 35.9993 1.03681L35.9995 1.03629V1.03629ZM41.0286 16.8527C40.8321 17.1749 40.4105 17.277 40.0883 17.0793C37.5135 15.5065 34.2722 15.1503 30.4549 16.0225C30.0871 16.1063 29.7204 15.8758 29.6366 15.5078C29.5524 15.1399 29.782 14.7732 30.1507 14.6894C34.3281 13.735 37.9114 14.1459 40.802 15.9125C41.1241 16.1102 41.2263 16.5306 41.0286 16.8527V16.8527ZM42.3708 13.8667C42.1233 14.269 41.5969 14.396 41.1949 14.1485C38.2471 12.3367 33.7538 11.812 30.2671 12.8703C29.815 13.0069 29.3374 12.7521 29.2001 12.3007C29.064 11.8485 29.3189 11.3718 29.7703 11.2343C33.753 10.0259 38.7041 10.6113 42.0893 12.6914C42.4913 12.9389 42.6183 13.4654 42.3708 13.8669V13.8667ZM42.4861 10.7574C38.9516 8.65811 33.1203 8.46508 29.7458 9.48926C29.2039 9.65361 28.6309 9.3477 28.4667 8.80582C28.3025 8.26368 28.6081 7.69102 29.1504 7.52629C33.0241 6.35033 39.4637 6.57754 43.5329 8.99321C44.0213 9.28249 44.1811 9.91198 43.8917 10.3987C43.6036 10.8861 42.9724 11.0468 42.4866 10.7574H42.4861ZM54.8689 11.1597C52.9753 10.7082 52.6388 10.3913 52.6388 9.72537C52.6388 9.09627 53.2307 8.6729 54.112 8.6729C54.9658 8.6729 55.8118 8.99439 56.6996 9.65623C56.7258 9.67626 56.7599 9.68425 56.7926 9.67901C56.8267 9.67404 56.8555 9.65583 56.8751 9.62846L57.7996 8.32523C57.8376 8.27154 57.8271 8.19755 57.7761 8.15656C56.7193 7.3089 55.5302 6.8968 54.1395 6.8968C52.0953 6.8968 50.6667 8.12369 50.6667 9.87911C50.6667 11.7615 51.8989 12.4281 54.0282 12.9426C55.8393 13.36 56.1457 13.7096 56.1457 14.3345C56.1457 15.0272 55.5276 15.4581 54.5324 15.4581C53.4271 15.4581 52.5249 15.0849 51.5165 14.2127C51.4917 14.1905 51.4576 14.1813 51.4262 14.1826C51.3921 14.1852 51.362 14.2009 51.3411 14.2258L50.3039 15.4594C50.2607 15.5118 50.2659 15.5877 50.3157 15.6322C51.489 16.6799 52.9321 17.2325 54.4905 17.2325C56.6931 17.2325 58.1165 16.029 58.1165 14.1656C58.1205 12.5932 57.1789 11.7224 54.8728 11.1614L54.8689 11.1597V11.1597ZM63.1006 9.29231C62.1459 9.29231 61.3628 9.66841 60.7159 10.4391V9.57163C60.7159 9.50314 60.6609 9.44736 60.5928 9.44736H58.897C58.8289 9.44736 58.7739 9.50314 58.7739 9.57163V19.2099C58.7739 19.278 58.8289 19.3343 58.897 19.3343H60.5928C60.6609 19.3343 60.7159 19.278 60.7159 19.2099V16.1678C61.3628 16.892 62.1459 17.2469 63.1006 17.2469C64.875 17.2469 66.6717 15.881 66.6717 13.27C66.6743 10.6584 64.8776 9.29218 63.1019 9.29218L63.1006 9.29231ZM64.6995 13.27C64.6995 14.599 63.8811 15.5275 62.7077 15.5275C61.5488 15.5275 60.674 14.5571 60.674 13.27C60.674 11.9827 61.5488 11.0126 62.7077 11.0126C63.8614 11.0125 64.6995 11.9616 64.6995 13.2699V13.27ZM71.2746 9.29231C68.9895 9.29231 67.1994 11.0518 67.1994 13.2984C67.1994 15.5209 68.9777 17.2613 71.2471 17.2613C73.5401 17.2613 75.3355 15.5078 75.3355 13.27C75.3355 11.0397 73.5519 9.29257 71.2746 9.29257V9.29231V9.29231ZM71.2746 15.5406C70.0594 15.5406 69.1427 14.5637 69.1427 13.2693C69.1427 11.9691 70.028 11.0256 71.2471 11.0256C72.4702 11.0256 73.3921 12.0021 73.3921 13.2978C73.3921 14.5977 72.5017 15.5406 71.2746 15.5406V15.5406ZM80.2148 9.44736H78.3487V7.5399C78.3487 7.47155 78.2937 7.41576 78.2256 7.41576H76.5298C76.4617 7.41576 76.4053 7.47155 76.4053 7.5399V9.44736H75.5908C75.5227 9.44736 75.4677 9.50314 75.4677 9.57163V11.0287C75.4677 11.0971 75.5227 11.153 75.5908 11.153H76.4053V14.9238C76.4053 16.4468 77.1636 17.2194 78.6603 17.2194C79.268 17.2194 79.7721 17.0937 80.2475 16.8239C80.2868 16.803 80.3103 16.761 80.3103 16.7165V15.3284C80.3103 15.2865 80.2881 15.2459 80.2514 15.2237C80.2148 15.2001 80.1689 15.1988 80.1309 15.2184C79.8049 15.3821 79.4893 15.4581 79.1357 15.4581C78.5923 15.4581 78.3487 15.2106 78.3487 14.658V11.1537H80.2148C80.2829 11.1537 80.3378 11.0979 80.3378 11.0294V9.57242C80.3405 9.50393 80.2855 9.44814 80.2161 9.44814L80.2148 9.44736V9.44736ZM86.7152 9.45482V9.22055C86.7152 8.53135 86.9798 8.224 87.5717 8.224C87.9252 8.224 88.2094 8.29419 88.5276 8.40026C88.5669 8.41257 88.6075 8.40642 88.6389 8.38298C88.6717 8.35954 88.69 8.32195 88.69 8.28214V6.85345C88.69 6.79885 88.6559 6.75052 88.6023 6.73442C88.267 6.6345 87.8375 6.53196 87.1932 6.53196C85.6283 6.53196 84.7994 7.4138 84.7994 9.08121V9.44002H83.9849C83.9168 9.44002 83.8605 9.49581 83.8605 9.56417V11.0287C83.8605 11.0971 83.9168 11.153 83.9849 11.153H84.7994V16.968C84.7994 17.0374 84.8557 17.0924 84.9238 17.0924H86.6183C86.6877 17.0924 86.7427 17.0374 86.7427 16.968V11.1534H88.3259L90.7512 16.968C90.4762 17.5782 90.2051 17.7 89.8358 17.7C89.5373 17.7 89.2217 17.6109 88.9008 17.4341C88.8707 17.4184 88.834 17.4158 88.8026 17.425C88.7699 17.4368 88.7424 17.4603 88.7293 17.4918L88.1544 18.7528C88.1269 18.8131 88.1505 18.8825 88.2081 18.9139C88.8078 19.2387 89.3487 19.3775 90.0178 19.3775C91.2698 19.3775 91.9625 18.7934 92.5714 17.2246L95.5126 9.62454C95.5283 9.5863 95.5231 9.54308 95.4995 9.50917C95.4773 9.47551 95.4393 9.45521 95.3987 9.45521H93.6334C93.5798 9.45521 93.5326 9.48887 93.5156 9.5385L91.7071 14.7025L89.7271 9.5351C89.7088 9.48704 89.663 9.45521 89.6119 9.45521H86.7152V9.45482V9.45482ZM82.9464 9.44736H81.2506C81.1825 9.44736 81.1262 9.50314 81.1262 9.57163V16.968C81.1262 17.0374 81.1825 17.0924 81.2506 17.0924H82.9464C83.0145 17.0924 83.0708 17.0374 83.0708 16.968V9.57215C83.0708 9.50367 83.0158 9.44788 82.9464 9.44788V9.44736ZM82.1083 6.07939C81.4365 6.07939 80.8918 6.62311 80.8918 7.29476C80.8918 7.96681 81.4365 8.51118 82.1083 8.51118C82.7801 8.51118 83.3236 7.96681 83.3236 7.29476C83.3236 6.62324 82.7788 6.07939 82.1083 6.07939ZM96.9609 11.8256C96.2905 11.8256 95.768 11.2867 95.768 10.6323C95.768 9.97798 96.297 9.43295 96.9675 9.43295C97.638 9.43295 98.1605 9.97169 98.1605 10.6255C98.1605 11.2799 97.6314 11.8256 96.9609 11.8256ZM96.9675 9.5516C96.3559 9.5516 95.8937 10.0374 95.8937 10.6323C95.8937 11.227 96.3533 11.7063 96.9609 11.7063C97.5725 11.7063 98.0348 11.2208 98.0348 10.6255C98.0348 10.0309 97.5751 9.5516 96.9675 9.5516V9.5516ZM97.232 10.7482L97.5699 11.2207H97.2844L96.9806 10.7873H96.72V11.2207H96.4817V9.96829H97.0395C97.3315 9.96829 97.5227 10.1172 97.5227 10.3678C97.524 10.5732 97.4049 10.6986 97.2333 10.7482H97.232ZM97.0303 10.1832H96.72V10.5793H97.0303C97.1849 10.5793 97.2779 10.5035 97.2779 10.381C97.2779 10.2522 97.1849 10.1832 97.0303 10.1832V10.1832Z" fill="#1ED760"/>
</g>
<defs>
<clipPath id="clip0_3_52">
<rect width="73.2024" height="22" fill="white" transform="translate(25 1)"/>
</clipPath>
</defs>
</svg>
